<svg xmlns="http://www.w3.org/2000/svg" version="1.1" xmlns:xlink="http://www.w3.org/1999/xlink" xmlns:svgjs="http://svgjs.dev/svgjs" width="1500" height="1687" viewBox="0 0 1500 1687"><g transform="matrix(1,0,0,1,0.0008643956454079671,0)"><svg viewBox="0 0 320 360" data-background-color="#ffffff" preserveAspectRatio="xMidYMid meet" height="1687" width="1500" xmlns="http://www.w3.org/2000/svg" xmlns:xlink="http://www.w3.org/1999/xlink"><g id="tight-bounds" transform="matrix(1,0,0,1,0.00018440440442191175,0)"><svg viewBox="0 0 320 360" height="360" width="320"><g><svg></svg></g><g><svg viewBox="0 0 320 360" height="360" width="320"><g><path d="M294.684 112.125c-8.775-10.699-25.381-16.201-43-22.006-7.56-2.498-15.357-5.097-22.985-8.235-7.695-3.173-15.256-7.257-22.613-11.172-14.952-8.033-30.41-16.336-46.105-16.336-15.661 0-31.119 8.303-46.071 16.336-7.358 3.949-14.952 8.033-22.648 11.205-7.594 3.139-15.425 5.704-22.985 8.236-17.618 5.839-34.224 11.341-42.999 22.006-11.712 14.277-11.442 35.439-11.172 57.817 0.034 3.375 0.068 6.717 0.067 10.024 0 3.308-0.034 6.649-0.101 10.024-0.27 22.411-0.54 43.54 11.172 57.851 8.775 10.666 25.381 16.167 42.966 22.006 7.56 2.498 15.357 5.097 23.019 8.235 7.695 3.173 15.256 7.223 22.579 11.172 14.986 8.067 30.444 16.37 46.105 16.37 15.695 0 31.153-8.303 46.105-16.336 7.358-3.949 14.918-8.033 22.614-11.172 7.594-3.139 15.357-5.704 22.884-8.202 17.72-5.873 34.326-11.374 43.101-22.039 11.712-14.277 11.442-35.439 11.171-57.817-0.034-3.409-0.101-6.75-0.101-10.058 0-3.308 0.034-6.649 0.101-9.991 0.371-22.479 0.641-43.641-11.104-57.918zM305.552 103.215c-15.728-19.171-45.801-23.727-71.486-34.326-22.985-9.45-46.375-28.588-74.051-28.587-27.676 0-51.066 19.137-74.052 28.587-25.719 10.598-55.758 15.155-71.486 34.326-17.078 20.791-14.311 50.121-14.311 76.785 0 26.63-2.768 55.994 14.277 76.785 15.728 19.171 45.801 23.727 71.487 34.326 22.985 9.484 46.375 28.588 74.051 28.587 27.676 0 51.066-19.103 74.051-28.587 25.719-10.598 55.758-15.155 71.486-34.326 17.045-20.791 14.277-50.121 14.277-76.785 0.068-26.664 2.835-55.994-14.243-76.785zM309.872 189.923c0.304 23.221 0.574 45.059-12.083 60.483-9.518 11.577-26.664 17.281-44.822 23.289-7.56 2.498-15.29 5.063-22.715 8.134-7.493 3.071-14.952 7.088-22.175 10.969-15.458 8.303-31.355 16.842-48.062 16.842-16.707 0-32.604-8.539-47.995-16.808-7.257-3.915-14.75-7.932-22.243-11.003-7.527-3.105-15.256-5.67-22.748-8.134-18.192-6.008-35.338-11.712-44.823-23.289-12.623-15.391-12.353-37.262-12.083-60.415 0.034-3.375 0.101-6.683 0.101-9.991 0-3.308-0.034-6.615-0.067-9.991-0.304-23.154-0.574-45.025 12.083-60.415 9.518-11.577 26.664-17.247 44.822-23.289 7.527-2.498 15.256-5.063 22.749-8.134 7.493-3.105 14.986-7.122 22.242-11.003 15.391-8.269 31.322-16.842 47.995-16.842 16.673 0 32.604 8.539 47.995 16.808 7.257 3.915 14.75 7.932 22.243 11.003 7.493 3.105 15.256 5.637 22.715 8.134 18.158 6.008 35.338 11.712 44.822 23.289 12.657 15.425 12.387 37.262 12.083 60.416-0.034 3.409-0.101 6.717-0.101 9.99 0 3.308 0.034 6.615 0.067 9.957z" fill="#2453d4" fill-rule="nonzero" stroke="none" stroke-width="1" stroke-linecap="butt" stroke-linejoin="miter" stroke-miterlimit="10" stroke-dasharray="" stroke-dashoffset="0" font-family="none" font-weight="none" font-size="none" text-anchor="none" style="mix-blend-mode: normal" data-fill-palette-color="tertiary"></path></g><g transform="matrix(1,0,0,1,64,165.5229563269877)"><svg viewBox="0 0 192 28.954087346024636" height="28.954087346024636" width="192"><g><svg viewBox="0 0 192 28.954087346024636" height="28.954087346024636" width="192"><g><svg viewBox="0 0 192 28.954087346024636" height="28.954087346024636" width="192"><g id="textblocktransform"><svg viewBox="0 0 192 28.954087346024636" height="28.954087346024636" width="192" id="textblock"><g><svg viewBox="0 0 192 28.954087346024636" height="28.954087346024636" width="192"><g transform="matrix(1,0,0,1,0,0)"><svg width="192" viewBox="2.98 -37.99 261.59999999999997 39.45" height="28.954087346024636" data-palette-color="#ffffff"><path d="M51.46-9.13L51.46-9.13Q51.46-8.69 51.51-7.78 51.56-6.86 51.59-6.03 51.61-5.2 51.62-4.19 51.64-3.17 51.55-2.36 51.46-1.54 51.29-0.82 51.12-0.1 50.77 0.29 50.42 0.68 49.9 0.68L49.9 0.68 38.77 0.68Q37.6-0.22 37.6-6.05L37.6-6.05Q37.6-8.18 37.62-11.17 37.65-14.16 37.65-15.43L37.65-15.43 37.65-17.14Q37.65-17.36 37.61-17.98 37.57-18.6 37.6-18.95L37.6-18.95Q36.62-15.41 35.21-8.81 33.79-2.22 33.25 0L33.25 0Q33.01 0.68 31.01 0.68L31.01 0.68 22.36 0.68Q20.78 0.68 20.51-0.15L20.51-0.15 18.16-10.35Q17.85-11.91 17.47-13.6 17.09-15.28 16.58-17.43 16.06-19.58 15.82-20.61L15.82-20.61Q15.53-12.79 15.53-8.69L15.53-8.69 15.53-4.39Q15.53-1.51 15.58-0.05L15.58-0.05Q15.43 0.49 15.04 0.49L15.04 0.49 12.74 0.49Q11.3 0.49 8.52 0.51 5.74 0.54 4.3 0.54L4.3 0.54Q2.98 0.54 2.98 0.1L2.98 0.1 2.98-36.13Q2.98-36.35 3.09-36.51 3.2-36.67 3.43-36.76 3.66-36.84 3.88-36.89 4.1-36.94 4.44-36.95 4.79-36.96 5-36.98 5.22-36.99 5.57-36.98 5.91-36.96 6.01-36.96L6.01-36.96 8.89-36.96Q15.84-36.96 18.69-36.77 21.53-36.57 23.05-36.57L23.05-36.57Q23.63-33.3 24.9-26.86L24.9-26.86 26.76-17.14 30.66-36.87Q30.66-36.87 30.86-36.82 31.05-36.77 31.15-36.77L31.15-36.77Q33.76-36.77 38.87-36.84 43.97-36.91 46.58-36.91L46.58-36.91 50.2-36.91Q50.88-36.84 50.88-35.55L50.88-35.55Q51.42-11.89 51.46-9.13ZM55.76-0.88L55.76-0.88 55.76-1.81Q55.76-5.98 55.86-14.14 55.95-22.29 55.95-26.46L55.95-26.46 55.95-36.57 84.37-36.57 84.37-28.56Q84.37-28.49 84.37-28.2 84.37-27.91 84.37-27.81 84.37-27.71 84.35-27.45 84.32-27.2 84.26-27.1 84.2-27 84.09-26.82 83.98-26.64 83.84-26.56 83.69-26.49 83.44-26.43 83.2-26.37 82.91-26.37L82.91-26.37 82.22-26.37Q75.9-26.37 70.7-26.56L70.7-26.56Q70.65-26.17 70.54-25.35 70.43-24.54 70.37-23.91 70.31-23.29 70.31-22.71L70.31-22.71 81.93-22.71Q82.66-22.71 82.91-22.51 83.15-22.31 83.15-21.88L83.15-21.88Q83.15-21.75 83.13-21.48 83.1-21.22 83.1-21.09L83.1-21.09Q83.1-19.92 83.18-17.63 83.25-15.33 83.25-14.16L83.25-14.16Q83.18-13.67 82.86-13.67L82.86-13.67Q82.71-13.67 82.61-13.77L82.61-13.77Q74.9-13.38 71.19-13.38L71.19-13.38 70.55-13.38 70.55-9.86Q72.73-9.86 76.84-10.06 80.95-10.25 83.01-10.25L83.01-10.25Q84.62-10.25 84.86-9.57L84.86-9.57 84.86-7.71Q84.86-6.54 84.91-4.25 84.96-1.95 84.96-0.78L84.96-0.78Q84.96 0.44 83.98 0.44L83.98 0.44Q82.71 0.44 80.08 0.42 77.44 0.39 76.07 0.39L76.07 0.39Q72.56 0.39 66.01 0.57 59.47 0.76 56.54 0.78L56.54 0.78 55.86 0Q55.76-0.68 55.76-0.88ZM100.04 0.78L89.3 0.78Q88.76 0.78 88.48 0.67 88.2 0.56 88.12 0.42 88.03 0.27 87.84-0.15L87.84-0.15 87.84-34.86Q87.84-35.4 87.85-35.64 87.86-35.89 87.93-36.22 88.01-36.55 88.17-36.68 88.33-36.82 88.62-36.91 88.91-37.01 89.35-37.01L89.35-37.01 99.36-37.01Q102.88-37.01 102.88-36.13L102.88-36.13 102.88-36.08Q102.78-27 102.78-22.56L102.78-22.56 109.64-36.84 114.69-36.82Q125.04-36.82 125.04-36.33L125.04-36.33Q125.04-36.23 124.95-36.23L124.95-36.23Q120.21-27.69 115.33-19.24L115.33-19.24 115.33-18.55 116.33-17.92 126.53-0.37Q126.53 0.02 125.97 0.49L125.97 0.49 110.3 0.49 103.32-13.13Q103.17-11.79 103.1-9.23 103.02-6.67 102.97-5.86L102.97-5.86 102.97-0.1Q102.8 0.78 100.04 0.78L100.04 0.78ZM124.41 0L124.41 0Q125.92-5.59 127.75-11.35 129.58-17.11 132.3-25.13 135.03-33.15 136.03-36.23L136.03-36.23Q136.32-36.72 136.42-36.82L136.42-36.82 140.52-36.82Q141.96-36.82 144.77-36.87 147.58-36.91 149.02-36.91L149.02-36.91 153.12-36.91Q153.48-36.91 153.73-36.9 153.97-36.89 154.31-36.84 154.66-36.79 154.86-36.69 155.07-36.6 155.22-36.4 155.36-36.21 155.36-35.94L155.36-35.94 166.62-0.27Q166.62 0.22 166.26 0.4 165.91 0.59 164.93 0.59L164.93 0.59 162.69 0.59Q161.71 0.59 159.78 0.61 157.85 0.63 156.88 0.63L156.88 0.63Q156.58 0.63 155.69 0.67 154.8 0.71 154.19 0.7 153.58 0.68 152.84 0.62 152.09 0.56 151.64 0.35 151.19 0.15 151.07-0.2L151.07-0.2 151.07-1.81Q150.82-3.03 150.21-4.05 149.6-5.08 148.92-5.08L148.92-5.08 140.52-5.08 139.25 0.1Q138.98 0.68 136.52 0.68L136.52 0.68 134.56 0.68Q133.51 0.68 131.44 0.76 129.36 0.83 128.31 0.83L128.31 0.83 127.63 0.83Q127.24 0.83 126.4 0.85 125.55 0.88 125.09 0.88L125.09 0.88Q124.89 0.68 124.41 0ZM143.3-23.29L141.35-14.82 142.03-13.67 143.64-13.67Q145.6-13.67 147.22-13.9 148.85-14.14 148.85-14.65L148.85-14.65 145.7-28.71Q145.26-28.71 144.51-27.05 143.77-25.39 143.3-23.29L143.3-23.29ZM183.34 1.46L183.34 1.46Q180.46 1.34 178.16 0.96 175.87 0.59 173.73-0.26 171.6-1.1 170.14-2.38 168.69-3.66 167.73-5.66 166.76-7.67 166.54-10.3L166.54-10.3Q166.54-10.77 167.03-10.84L167.03-10.84Q167.18-10.79 167.52-10.79L167.52-10.79Q169.55-10.79 173.67-10.89 177.8-10.99 179.82-10.99L179.82-10.99Q180.34-10.99 180.63-10.66 180.92-10.33 181.11-9.85 181.29-9.38 181.55-8.9 181.8-8.42 182.42-8.09 183.05-7.76 184.02-7.76L184.02-7.76Q185.22-7.76 186.14-8.44 187.05-9.11 187.05-10.25L187.05-10.25Q187.05-11.01 186.27-11.65 185.49-12.28 184.21-12.68 182.92-13.09 181.76-13.37 180.61-13.65 179.38-13.85 178.16-14.06 177.97-14.11L177.97-14.11Q172.04-15.72 169.44-18.12 166.84-20.51 166.84-24.66L166.84-24.66Q166.84-27.59 167.91-29.92 168.98-32.25 170.72-33.73 172.45-35.21 174.82-36.19 177.19-37.18 179.6-37.59 182.02-37.99 184.61-37.99L184.61-37.99Q191.47-37.99 195.55-35.45L195.55-35.45Q197.04-33.96 197.73-33.19 198.43-32.42 199.07-31.4 199.72-30.37 199.98-29.38 200.23-28.39 200.33-26.95L200.33-26.95 199.45-26.07Q194.45-25.88 188.22-25.88L188.22-25.88Q187.44-25.88 186.97-26.05 186.49-26.22 186.33-26.49 186.17-26.76 186.01-27.05 185.85-27.34 185.72-27.61 185.59-27.88 185.16-28.05 184.73-28.22 184.02-28.22L184.02-28.22Q183.83-28.22 183.4-28.15 182.97-28.08 182.4-27.92 181.83-27.76 181.41-27.43 181-27.1 181-26.66L181-26.66Q181-26.12 181.55-25.68 182.09-25.24 182.7-25.05 183.32-24.85 184.22-24.62 185.12-24.39 185.34-24.32L185.34-24.32Q190.66-22.97 191.69-22.66L191.69-22.66Q197.04-20.97 199.26-18.24L199.26-18.24Q201.31-15.7 201.31-11.87L201.31-11.87Q201.31-9.55 200.71-7.64 200.11-5.74 199.14-4.42 198.16-3.1 196.69-2.08 195.23-1.05 193.73-0.44 192.23 0.17 190.32 0.59 188.42 1 186.82 1.18 185.22 1.37 183.34 1.46ZM204.04-0.88L204.04-0.88 204.04-1.81Q204.04-5.98 204.14-14.14 204.24-22.29 204.24-26.46L204.24-26.46 204.24-36.57 232.65-36.57 232.65-28.56Q232.65-28.49 232.65-28.2 232.65-27.91 232.65-27.81 232.65-27.71 232.63-27.45 232.6-27.2 232.54-27.1 232.48-27 232.37-26.82 232.26-26.64 232.12-26.56 231.97-26.49 231.73-26.43 231.48-26.37 231.19-26.37L231.19-26.37 230.51-26.37Q224.18-26.37 218.98-26.56L218.98-26.56Q218.93-26.17 218.82-25.35 218.71-24.54 218.65-23.91 218.59-23.29 218.59-22.71L218.59-22.71 230.21-22.71Q230.94-22.71 231.19-22.51 231.43-22.31 231.43-21.88L231.43-21.88Q231.43-21.75 231.41-21.48 231.38-21.22 231.38-21.09L231.38-21.09Q231.38-19.92 231.46-17.63 231.53-15.33 231.53-14.16L231.53-14.16Q231.46-13.67 231.14-13.67L231.14-13.67Q230.99-13.67 230.9-13.77L230.9-13.77Q223.18-13.38 219.47-13.38L219.47-13.38 218.84-13.38 218.84-9.86Q221.01-9.86 225.12-10.06 229.24-10.25 231.29-10.25L231.29-10.25Q232.9-10.25 233.14-9.57L233.14-9.57 233.14-7.71Q233.14-6.54 233.19-4.25 233.24-1.95 233.24-0.78L233.24-0.78Q233.24 0.44 232.26 0.44L232.26 0.44Q230.99 0.44 228.36 0.42 225.72 0.39 224.35 0.39L224.35 0.39Q220.84 0.39 214.29 0.57 207.75 0.76 204.82 0.78L204.82 0.78 204.14 0Q204.04-0.68 204.04-0.88ZM236.17-32.62L236.17-32.62Q236.17-36.6 237-37.06L237-37.06Q237.24-37.01 237.68-37.01L237.68-37.01 238.46-37.01Q239.22-37.01 240.95-37.06 242.69-37.11 243.59-37.11L243.59-37.11Q247.06-37.11 249.19-36.83 251.33-36.55 251.6-35.79L251.6-35.79 251.3-10.6 251.84-10.6Q253.79-10.69 254.57-10.68 255.36-10.67 257.44-10.58 259.53-10.5 261.46-10.5L261.46-10.5Q263.05-10.5 263.82-10.31 264.58-10.13 264.58-9.57L264.58-9.57 264.58-0.2Q264.27 0.68 253.7 0.68L253.7 0.68 236.8 0.68Q236.22-0.17 236.22-2.05L236.22-2.05 236.22-8.98Q236.22-12.04 236.26-18.02 236.31-24 236.31-27.05L236.31-27.05Q236.31-27.61 236.24-29.54 236.17-31.47 236.17-32.62Z" opacity="1" transform="matrix(1,0,0,1,0,0)" fill="#ffffff" class="wordmark-text-0" data-fill-palette-color="quaternary" id="text-0"></path></svg></g></svg></g></svg></g></svg></g></svg></g></svg></g></svg></g><defs></defs></svg><rect width="320" height="360" fill="none" stroke="none" visibility="hidden"></rect></g></svg></g></svg>